Coordinates
version=1
nRows=30
nColumns=19
inDegrees=yes

Units are S.I. units (second, meters, Newtons, ...)
If the header above contains a line with 'inDegrees', this indicates whether rotational values are in degrees (yes) or radians (no).

endheader
time	pelvis_tilt	pelvis_list	pelvis_rotation	pelvis_tx	pelvis_ty	pelvis_tz	hip_flexion_r	hip_adduction_r	hip_rotation_r	knee_angle_r	knee_angle_r_beta	ankle_angle_r	hip_flexion_l	hip_adduction_l	hip_rotation_l	knee_angle_l	knee_angle_l_beta	ankle_angle_l
     15.40666667	     -1.22767904	     -5.40392298	     -3.60570993	      2.26978038	      1.05740193	      1.04357653	     14.90803763	      8.34001852	     -3.52361027	     15.56109448	      0.27159233	      8.93891627	     -6.87823650	     -8.58956766	     -1.84742866	     66.03433440	      1.15251655	    -33.54315861
     15.41333333	     -0.72258229	     -5.78659818	     -3.71637179	      2.26828363	      1.05128713	      1.04367575	     15.39109943	      8.55620454	     -4.13798049	     19.03163803	      0.33216475	      9.48628058	     -6.09107675	     -9.15505786	     -1.63169751	     69.27263412	      1.20903555	    -33.33643988
     15.42000000	     -0.19062194	     -6.07841078	     -3.75928587	      2.26663410	      1.04507003	      1.04351981	     15.86662554	      8.62477241	     -4.72853284	     22.59363375	      0.39433330	     10.26650067	     -5.24799744	     -9.55708509	     -1.24270255	     72.44590662	      1.26441960	    -33.13252198
     15.42666667	      0.35170456	     -6.19211629	     -3.73720342	      2.26469255	      1.03886615	      1.04317821	     16.35109732	      8.46147388	     -5.29022944	     26.21664239	      0.45756673	     11.34749434	     -4.29691061	     -9.66301599	     -0.64148750	     75.53872173	      1.31839941	    -32.98257288
     15.43333333	      0.84273301	     -6.20599143	     -3.70933178	      2.26261509	      1.03273385	      1.04273761	     16.81006737	      8.19761817	     -5.70381675	     29.71205500	      0.51857319	     12.63219372	     -3.21371916	     -9.61556994	      0.01101808	     78.52958358	      1.37059979	    -32.90116985
     15.44000000	      1.37841451	     -6.09490279	     -3.65839524	      2.26032301	      1.02689964	      1.04211807	     17.11552485	      7.81448365	     -5.93898362	     33.01914401	      0.57629278	     14.13574425	     -2.09662549	     -9.35462136	      0.72221572	     81.38413848	      1.42042118	    -32.93623672
     15.44666667	      2.28518953	     -6.11748980	     -3.63808599	      2.25812666	      1.02188470	      1.04162084	     16.75065525	      7.63361712	     -5.94327860	     35.87003422	      0.62605020	     15.76894930	     -1.42310292	     -9.24615995	      1.27135307	     83.97857448	      1.46570263	    -33.10744319
     15.45333333	      2.22414864	     -5.53438352	     -3.62358903	      2.25556354	      1.01617697	      1.04097008	     17.49367967	      6.84318619	     -5.85246647	     38.81535082	      0.67745567	     17.56598663	      0.53886815	     -8.37788886	      2.04465727	     86.58774948	      1.51124132	    -33.37171331
     15.46000000	      3.16148096	     -5.53076299	     -3.66923586	      2.25324707	      1.01216092	      1.04063676	     16.69626705	      6.73579281	     -5.60199926	     40.96599379	      0.71499147	     19.28913342	      1.24243426	     -8.28767602	      2.38052844	     88.79481385	      1.54976186	    -33.86910254
     15.46666667	      3.30969274	     -4.57064353	     -3.67464221	      2.25064342	      1.00792079	      1.04012800	     16.81067949	      5.60524755	     -5.24935232	     43.18897128	      0.75378975	     21.04253608	      3.01555944	     -6.95915462	      2.93437960	     90.86387136	      1.58587373	    -34.30938004
     15.47333333	      3.93831697	     -4.44097738	     -3.79267993	      2.24847785	      1.00483387	      1.04013263	     15.91418064	      5.47365446	     -4.80834161	     44.58255223	      0.77811233	     22.62263876	      4.08386501	     -6.81912699	      3.06746217	     92.64853508	      1.61702198	    -34.74565396
     15.48000000	      3.66178194	     -3.53105327	     -4.01417549	      2.24620149	      1.00140450	      1.04013611	     16.03155008	      4.55180498	     -4.18784592	     46.00912369	      0.80301069	     24.12447893	      6.26262527	     -5.73673510	      3.13984135	     94.26149077	      1.64517337	    -35.12060014
     15.48666667	      3.95697431	     -3.00453063	     -4.21780802	      2.24431396	      0.99937837	      1.04039460	     15.15569677	      4.02077608	     -3.66228769	     46.79359099	      0.81670223	     25.39115323	      7.67185213	     -5.19613581	      3.02441776	     95.50829272	      1.66693417	    -35.33605008
     15.49333333	      4.27696906	     -2.75022008	     -4.37638084	      2.24271331	      0.99812408	      1.04084044	     13.97332984	      3.78919519	     -3.22042473	     47.09278103	      0.82192408	     26.37529029	      8.97740188	     -5.07260080	      2.85178116	     96.50379371	      1.68430894	    -35.34312612
     15.50000000	      4.22266156	     -2.09259548	     -4.71782039	      2.24137474	      0.99717797	      1.04147627	     13.12468606	      3.14413199	     -2.63083905	     47.24545093	      0.82458868	     27.32826690	     10.62477657	     -4.52973758	      2.39069143	     97.19482192	      1.69636966	    -35.10744292
     15.50666667	      4.25963742	     -1.77909901	     -4.90461965	      2.24039379	      0.99712163	      1.04220113	     11.88687447	      2.83395198	     -2.27539944	     46.89538215	      0.81847882	     27.94913202	     12.07207310	     -4.45821454	      2.00773143	     97.62906998	      1.70394872	    -34.59448088
     15.51333333	      4.17717300	     -1.43736516	     -5.10877438	      2.23970448	      0.99764837	      1.04300843	     10.63900886	      2.47575596	     -1.96470478	     46.28233406	      0.80777911	     28.33014076	     13.54667518	     -4.40041368	      1.52185719	     97.78205179	      1.70661875	    -33.81534914
     15.52000000	      4.05154375	     -1.10276388	     -5.36062723	      2.23921884	      0.99875302	      1.04390726	      9.32731985	      2.15970316	     -1.52879779	     45.46313215	      0.79348134	     28.60813547	     14.94027452	     -4.38255748	      0.91705189	     97.67508696	      1.70475186	    -32.52208004
     15.52666667	      3.77559316	     -0.77336974	     -5.52888361	      2.23908289	      1.00047137	      1.04476430	      8.03010853	      1.81797532	     -1.24735421	     44.35472004	      0.77413590	     28.54673418	     16.40022349	     -4.40448813	      0.30303362	     97.28368579	      1.69792063	    -31.15429004
     15.53333333	      4.08116685	     -0.71990241	     -5.85770146	      2.23930397	      1.00347547	      1.04598842	      5.88762972	      1.76567459	     -0.75567831	     42.86858391	      0.74819793	     28.25446228	     16.94581856	     -4.80995161	     -0.54512705	     96.54743869	      1.68507069	    -29.18207407
     15.54000000	      4.08162870	     -0.50327980	     -5.96550379	      2.23978336	      1.00682475	      1.04682416	      4.01455640	      1.49303162	     -0.52875851	     41.23339842	      0.71965856	     27.64031983	     17.78177935	     -4.93402479	     -1.23832922	     95.56345055	      1.66789686	    -27.09387479
     15.54666667	      3.97262329	     -0.33929470	     -6.09326291	      2.24049344	      1.01058987	      1.04768305	      2.18610487	      1.29658499	     -0.25494957	     39.43725139	      0.68830988	     26.72672203	     18.60263438	     -5.15910312	     -2.02302806	     94.33733284	      1.64649707	    -24.82691429
     15.55333333	      3.24614855	      0.02864706	     -6.13489194	      2.24140378	      1.01417009	      1.04831854	      1.08396709	      0.91226931	     -0.10216498	     37.69823840	      0.65795838	     25.47875926	     20.05328580	     -5.14468832	     -2.78718569	     92.91228586	      1.62162530	    -22.51408549
     15.56000000	      3.80689704	      0.09886095	     -6.24774651	      2.24281209	      1.01971909	      1.04916922	     -1.70749694	      0.71863870	      0.11794700	     35.39769823	      0.61780638	     23.78253696	     19.76365963	     -5.45208973	     -3.78471910	     91.05545713	      1.58921753	    -19.91449183
     15.56666667	      3.59740677	      0.29009209	     -6.28894263	      2.24436083	      1.02479428	      1.04979702	     -3.57694463	      0.46628755	      0.27324534	     33.19816661	      0.57941731	     21.70223696	     20.28816560	     -5.63818105	     -4.75100048	     89.05284644	      1.55426538	    -17.41427833
     15.57333333	      3.50240556	      0.52045026	     -6.30342821	      2.24622565	      1.03033254	      1.05033525	     -5.59005623	      0.13067436	      0.30123614	     30.89345676	      0.53919254	     19.19746016	     20.53664778	     -5.75674261	     -5.80191713	     86.77484048	      1.51450667	    -14.93208840
     15.58000000	      3.30567534	      0.75439551	     -6.28091043	      2.24828836	      1.03605048	      1.05072265	     -7.47154231	     -0.20541717	      0.24828127	     28.55470407	      0.49837360	     16.29000739	     20.78431129	     -5.85023207	     -6.89237669	     84.27307937	      1.47084271	    -12.55648551
     15.58666667	      3.16339827	      1.02156429	     -6.23794976	      2.25062450	      1.04204717	      1.05101756	     -9.40008281	     -0.59205692	      0.11370102	     26.14885931	      0.45638369	     13.00958923	     20.83530100	     -5.87237557	     -8.05610989	     81.51594362	      1.42272161	    -10.34057335
     15.59333333	      2.93251977	      1.24651973	     -6.15171787	      2.25310795	      1.04811754	      1.05112305	    -11.19138766	     -0.92345843	     -0.08902179	     23.73723865	      0.41429297	      9.40260850	     20.88157588	     -5.90133768	     -9.23297035	     78.56096851	      1.37114756	     -8.31341119
     15.60000000	      2.61554556	      1.39318733	     -5.99120827	      2.25577811	      1.05411150	      1.05102713	    -12.84788602	     -1.15232249	     -0.38527927	     21.35297346	      0.37267969	      5.57161882	     20.93878162	     -5.95468961	    -10.36301130	     75.44412534	      1.31674839	     -6.48002173
